<?xml version="1.0" encoding="UTF-8" standalone="no"?>
<svg
   xmlns:dc="http://purl.org/dc/elements/1.1/"
   xmlns:cc="http://creativecommons.org/ns#"
   xmlns:rdf="http://www.w3.org/1999/02/22-rdf-syntax-ns#"
   xmlns:svg="http://www.w3.org/2000/svg"
   xmlns="http://www.w3.org/2000/svg"
   version="1.1"
   id="svg8501"
   viewBox="0 0 744.09448819 1052.3622047"
   height="297mm"
   width="210mm">
  <defs
     id="defs8503" />
  <metadata
     id="metadata8506">
    <rdf:RDF>
      <cc:Work
         rdf:about="">
        <dc:format>image/svg+xml</dc:format>
        <dc:type
           rdf:resource="http://purl.org/dc/dcmitype/StillImage" />
        <dc:title></dc:title>
      </cc:Work>
    </rdf:RDF>
  </metadata>
  <g
     id="layer1">
    <ellipse
       ry="73.169563"
       rx="75.0298"
       cy="376.97086"
       cx="-229.45645"
       id="path9370-7"
       style="opacity:1;fill:#ffffff;fill-opacity:1;fill-rule:nonzero;stroke:none;stroke-width:13.80000019;stroke-linecap:round;stroke-linejoin:round;stroke-miterlimit:4;stroke-dasharray:none;stroke-dashoffset:0;stroke-opacity:1" />
    <text
       id="text4155-01-8-5-6-3-9-4-2-5-5"
       y="488.53894"
       x="-935.80219"
       style="font-style:normal;font-variant:normal;font-weight:bold;font-stretch:normal;font-size:307.95742798px;line-height:119.00000572%;font-family:Nunito;-inkscape-font-specification:'Nunito Bold';text-align:justify;letter-spacing:0px;word-spacing:0px;writing-mode:lr-tb;text-anchor:start;fill:#ffffff;fill-opacity:1;stroke:none;stroke-width:1px;stroke-linecap:butt;stroke-linejoin:miter;stroke-opacity:1"
       xml:space="preserve"><tspan
         y="488.53894"
         x="-935.80219"
         id="tspan4157-8-3-6-7-3-12-3-8-4-2">BLA</tspan></text>
    <path
       id="path9366-05"
       d="m -215.37366,474.30458 c -4.922,-2.4267 -3.214,-8.2485 0.428,-25.093 l 0.605,-32.4641 c 0.159,-11.6529 0.06,-22.2082 -0.16,-23.4562 -0.286,-1.5297 -1.795,-3.7261 -4.626,-6.741 -6.08,-6.4748 -6.669,-7.8095 -6.597,-14.9516 0.06,-7.0801 1.562,-13.498 4.644,-20.0026 5.574,-11.7645 13.551,-11.7645 19.107,0 2.993,6.3408 4.627,13.4813 4.652,20.3344 0,6.7474 -0.744,8.4843 -6.3,14.2719 -2.111,2.1978 -4.153,4.8306 -4.545,5.8507 -0.44,1.1626 -0.703,9.4111 -0.703,22.1056 l 1.258,33.9536 c 3.855,19.1059 3.795,24.0854 -1.453,26.5758 -2.696,1.2799 -3.556,0.9727 -6.308,-0.3829 z"
       style="fill:#dd3333;fill-opacity:1" />
    <ellipse
       ry="47.452065"
       rx="48.658459"
       cy="376.97086"
       cx="-229.6879"
       id="path9370-1-4"
       style="opacity:1;fill:none;fill-opacity:1;fill-rule:nonzero;stroke:#dd3333;stroke-width:1.44639003;stroke-linecap:round;stroke-linejoin:round;stroke-miterlimit:4;stroke-dasharray:none;stroke-dashoffset:0;stroke-opacity:1" />
    <path
       id="path9404-3"
       d="m -246.99166,474.44608 c -1.709,-0.8782 -3.228,-4.1861 -3.693,-8.0336 -0.49,-4.0452 -0.243,-19.5794 0.64,-40.5275 1.081,-25.568 1.266,-32.6735 0.904,-34.5909 -0.209,-1.104 -1.32,-2.6624 -3.837,-5.3773 -2.525,-2.7259 -3.624,-4.2634 -3.819,-5.3589 -0.159,-0.8454 0,-7.0265 0.313,-13.7361 0.322,-6.7098 0.682,-14.3997 0.804,-17.0894 0.21,-4.8141 0.614,-6.1309 1.528,-4.9751 0.255,0.3228 0.493,6.8453 0.529,14.4948 0.06,15.3319 0.201,16.8674 1.409,17.0093 1.451,0.1711 1.72,-2.6255 1.604,-16.5981 -0.04,-7.5122 0,-14.1659 0.159,-14.7868 0.263,-1.1262 1.184,-1.597 1.742,-0.8917 0.159,0.2053 0.404,6.3038 0.537,13.5531 0.308,16.5076 0.452,17.8895 1.89,18.1957 0.739,0.1572 1.234,-0.097 1.531,-0.785 0.241,-0.5596 0.265,-7.6896 0.06,-15.8445 -0.211,-8.1546 -0.12,-15.0443 0.179,-15.3098 1.202,-1.03 1.669,1.2125 1.922,9.1976 0.613,19.2834 1.317,24.2317 3.154,22.1021 0.376,-0.4346 0.474,-6.5134 0.215,-13.5076 -0.559,-15.2409 -0.473,-17.5226 0.643,-17.3913 1.14,0.1333 1.311,1.4249 1.835,13.8121 0.826,19.6321 0.77,21.7449 -0.631,24.1857 -0.713,1.2398 -2.163,2.9377 -3.22,3.7729 -1.618,1.2798 -1.966,2.0038 -2.205,4.601 -0.159,1.6957 0.179,15.4532 0.728,30.5727 1.762,47.8905 1.7,49.977 -1.604,52.5852 -1.524,1.2049 -2.109,1.3325 -3.299,0.7214 z"
       style="fill:#dd3333;fill-opacity:1" />
    <text
       id="text4155-0-40-6-1-6-1-0-8-6-6-0"
       y="720.24353"
       x="-551.46625"
       style="font-style:normal;font-variant:normal;font-weight:normal;font-stretch:normal;font-size:305.62911987px;line-height:119.00000572%;font-family:Nunito;-inkscape-font-specification:Nunito;text-align:justify;letter-spacing:0px;word-spacing:0px;writing-mode:lr-tb;text-anchor:start;fill:#ffffff;fill-opacity:1;stroke:none;stroke-width:1px;stroke-linecap:butt;stroke-linejoin:miter;stroke-opacity:1"
       xml:space="preserve"><tspan
         style="font-style:normal;font-variant:normal;font-weight:bold;font-stretch:normal;font-size:305.62911987px;font-family:Nunito;-inkscape-font-specification:'Nunito Bold';fill:#ffffff;fill-opacity:1"
         y="720.24353"
         x="-551.46625"
         id="tspan4157-6-9-0-0-8-4-25-3-0-2-6">NA</tspan></text>
  </g>
</svg>
